<?xml version="1.0" standalone="no"?><!DOCTYPE svg PUBLIC "-//W3C//DTD SVG 1.1//EN" "http://www.w3.org/Graphics/SVG/1.1/DTD/svg11.dtd"><svg t="1755164665837" class="icon" viewBox="0 0 1170 1024" version="1.1" xmlns="http://www.w3.org/2000/svg" p-id="5985" xmlns:xlink="http://www.w3.org/1999/xlink" width="146.25" height="128"><path d="M274.285714 621.714286q0-37.714286-26.857143-64.571429t-64.571428-26.857143-64.571429 26.857143-26.857143 64.571429 26.857143 64.571428 64.571429 26.857143 64.571428-26.857143 26.857143-64.571428z m20.571429-182.857143h580.571428l-50.857142-204q-1.142857-4.571429-8-10t-12-5.428572H365.714286q-5.142857 0-12 5.428572T345.714286 234.857143z m784 182.857143q0-37.714286-26.857143-64.571429t-64.571429-26.857143-64.571428 26.857143-26.857143 64.571429 26.857143 64.571428 64.571428 26.857143 64.571429-26.857143 26.857143-64.571428z m91.428571-54.857143v219.428571q0 8-5.142857 13.142857t-13.142857 5.142858h-54.857143v73.142857q0 45.714286-32 77.714285t-77.714286 32-77.714285-32-32-77.714285v-73.142857H292.571429v73.142857q0 45.714286-32 77.714285t-77.714286 32-77.714286-32-32-77.714285v-73.142857H18.285714q-8 0-13.142857-5.142858t-5.142857-13.142857V566.857143q0-53.142857 37.428571-90.571429T128 438.857143h16l60-239.428572q13.142857-53.714286 59.428571-90T365.714286 73.142857h438.857143q56 0 102.285714 36.285714T966.285714 199.428571l60 239.428572h16q53.142857 0 90.571429 37.428571T1170.285714 566.857143z" p-id="5986" fill="#ffffff"></path></svg>