<?xml version="1.0" standalone="no"?><!DOCTYPE svg PUBLIC "-//W3C//DTD SVG 1.1//EN" "http://www.w3.org/Graphics/SVG/1.1/DTD/svg11.dtd"><svg t="1755164722451" class="icon" viewBox="0 0 1578 1024" version="1.1" xmlns="http://www.w3.org/2000/svg" p-id="7437" xmlns:xlink="http://www.w3.org/1999/xlink" width="197.25" height="128"><path d="M1449.344 28.245333H165.333333A126.378667 126.378667 0 0 0 39.338667 154.24v707.968a126.378667 126.378667 0 0 0 125.994666 126.037333H1449.386667a126.378667 126.378667 0 0 0 125.994666-126.037333V154.24A126.378667 126.378667 0 0 0 1449.386667 28.245333zM184.704 916.224a72.021333 72.021333 0 1 1 0-144.042667 72.021333 72.021333 0 0 1 0 144.042667z m0-672a72.021333 72.021333 0 1 1 0-144.042667 72.021333 72.021333 0 0 1 0 144.042667z m238.634667 504.021333h-96V268.245333h96v480z m192 0h-96V268.245333h96v480z m288 0h-96V268.245333h96v480z m192 0h-96V268.245333h96v480z m192 0h-96V268.245333h96v480z m144 167.978667a72.021333 72.021333 0 1 1 0-144.042667 72.021333 72.021333 0 0 1 0 144.042667z m0-672a72.021333 72.021333 0 1 1 0-144.042667 72.021333 72.021333 0 0 1 0 144.042667z" fill="#ffffff" p-id="7438"></path></svg>